# xmcd
# Track frame offsets:
# 150
# 16588
# 33950
# 47954
# 57651
# 71089
# 92176
# 105940
# 122890
# 135715
# 150602
# 163974
# 175552
# 185404
# 198797
# 213014
# 224738
# 238353
# 249943
# 274216
# 284281
#
# Disc length: 3926 seconds
# Revision: 0
# Processed by: cddbd v1.5.1PL2 Copyright (c) Steve Scherf et al.
# Submitted via: VisiTrax 2.9.10.228 - For more info visit www.synapsa.com
#
DISCID=350f5415
DTITLE=Jennings, Waylon - Waylon's Greatest Hits Vol. 2 and Cowboys, Sisters, R
DTITLE=ascals and Dirt
DYEAR=1984
DGENRE=Country
TTITLE0=Looking For Suzanne
TTITLE1=The Conversation
TTITLE2=Waltz Me To Heaven
TTITLE3=Theme From The Dukes of Hazzard
TTITLE4=Don't You Think This Outlaw Bit's Done Got Out Of Hand
TTITLE5=I Ain't Living Long Like This
TTITLE6=Come With Me
TTITLE7=America
TTITLE8=Shine
TTITLE9=Women Do Know How To Carry On
TTITLE10=I'm Little
TTITLE11=I Just Can't Wait
TTITLE12=When I Get Big
TTITLE13=All of my Sisters are Girls
TTITLE14=A Bad Day
TTITLE15=Dirt
TTITLE16=Cowboy Movies
TTITLE17=If I Could Only Fly
TTITLE18=Useless (The Little Horse That Wouldn't Grow)
TTITLE19=Small Packages
TTITLE20=Shooter's Theme
EXTD=JEK  RCA PCD1-5325 c.84 (1-10)  and Sony Ode 2Kids LK 63450 c.93 (11-21)
EXTD=I put 2 cds onton 1 disk.
EXTT0=
EXTT1=
EXTT2=
EXTT3=
EXTT4=
EXTT5=
EXTT6=
EXTT7=
EXTT8=
EXTT9=
EXTT10=
EXTT11=
EXTT12=
EXTT13=
EXTT14=
EXTT15=
EXTT16=
EXTT17=
EXTT18=
EXTT19=
EXTT20=
PLAYORDER=
